<?xml version="1.0" standalone="no"?>
<!DOCTYPE svg PUBLIC "-//W3C//DTD SVG 20010904//EN"
 "http://www.w3.org/TR/2001/REC-SVG-20010904/DTD/svg10.dtd">
<svg version="1.0" xmlns="http://www.w3.org/2000/svg"
 width="1000.000000pt" height="1000.000000pt" viewBox="0 0 1000.000000 1000.000000"
 preserveAspectRatio="xMidYMid meet">

<g transform="translate(0.000000,1000.000000) scale(0.100000,-0.100000)"
fill="#7b88db" stroke="none">
<path d="M4730 9990 c-41 -4 -118 -10 -170 -14 -516 -39 -1109 -193 -1608
-418 -1369 -617 -2389 -1816 -2778 -3263 -130 -483 -200 -1150 -165 -1555 5
-58 12 -143 16 -190 14 -188 69 -528 121 -740 182 -743 529 -1425 1025 -2021
122 -146 432 -460 574 -581 614 -521 1310 -879 2070 -1063 246 -60 497 -101
770 -127 164 -15 673 -15 826 0 64 7 143 15 175 18 160 17 552 91 694 131 771
219 1342 515 1930 1001 148 123 499 474 622 622 416 504 722 1052 909 1630 23
69 45 136 50 150 17 50 58 207 83 320 156 704 163 1425 22 2115 -168 818 -524
1553 -1074 2215 -123 148 -454 479 -602 602 -611 507 -1284 849 -2030 1032
-453 110 -1099 171 -1460 136z m-533 -2710 c46 -91 84 -168 85 -172 2 -4 32
-3 68 2 380 53 941 54 1324 1 39 -6 71 -9 72 -8 1 1 38 77 82 168 44 92 85
169 90 173 12 7 261 -44 453 -93 258 -67 522 -159 834 -291 58 -24 78 -52 260
-355 83 -138 295 -539 295 -558 0 -3 15 -38 34 -79 102 -220 190 -474 291
-843 44 -161 112 -552 135 -780 18 -179 24 -694 11 -903 -14 -221 15 -179
-251 -356 -408 -271 -768 -448 -1236 -609 l-162 -56 -20 22 c-78 86 -340 523
-329 550 2 7 38 25 78 41 165 64 452 211 447 228 -2 4 -28 27 -58 51 l-55 44
-95 -43 c-123 -54 -353 -137 -489 -175 -848 -239 -1716 -184 -2540 160 l-137
57 -54 -45 c-30 -24 -56 -47 -58 -51 -6 -16 365 -201 480 -239 21 -7 40 -16
43 -21 15 -24 -159 -326 -292 -507 l-53 -72 -163 55 c-245 84 -371 136 -607
251 -263 127 -390 200 -630 359 -244 162 -237 156 -244 229 -14 146 -18 712
-7 878 40 567 155 1073 361 1592 145 364 338 734 550 1057 71 108 42 89 298
194 172 70 451 164 624 209 165 43 447 104 468 102 8 -1 50 -73 97 -167z"/>
<path d="M3880 5380 c-341 -44 -574 -417 -492 -790 7 -36 34 -107 58 -158 98
-204 290 -332 499 -332 250 0 461 174 546 450 19 62 23 97 23 200 -1 107 -4
136 -27 205 -74 224 -253 390 -452 420 -77 11 -100 12 -155 5z"/>
<path d="M6015 5379 c-220 -28 -398 -196 -476 -449 -30 -96 -32 -261 -6 -360
42 -156 136 -294 257 -375 92 -62 161 -86 265 -92 100 -6 176 9 263 52 255
128 394 450 323 749 -75 314 -335 512 -626 475z"/>
</g>
</svg>
