<?xml version="1.0" standalone="no"?>
<!DOCTYPE svg PUBLIC "-//W3C//DTD SVG 20010904//EN"
 "http://www.w3.org/TR/2001/REC-SVG-20010904/DTD/svg10.dtd">
<svg version="1.0" xmlns="http://www.w3.org/2000/svg"
 width="1000.000000pt" height="1000.000000pt" viewBox="0 0 1000.000000 1000.000000"
 preserveAspectRatio="xMidYMid meet">

<g transform="translate(0.000000,1000.000000) scale(0.100000,-0.100000)"
fill="#7b88db" stroke="none">
<path d="M4780 9994 c-678 -38 -1270 -181 -1860 -449 -825 -374 -1567 -1007
-2077 -1770 -424 -636 -700 -1369 -797 -2117 -56 -428 -56 -888 0 -1316 122
-941 528 -1856 1147 -2581 132 -155 382 -406 537 -540 666 -576 1466 -964
2330 -1130 323 -62 575 -85 940 -85 462 0 824 45 1249 155 1096 283 2068 934
2752 1844 508 675 845 1501 953 2337 56 428 56 888 0 1316 -108 836 -445 1662
-953 2337 -270 360 -635 726 -986 991 -760 573 -1623 904 -2590 994 -118 11
-538 20 -645 14z m-1230 -2794 c435 -54 873 -256 1210 -558 l54 -49 -51 -64
c-164 -207 -315 -494 -408 -776 -14 -46 -30 -83 -33 -83 -4 0 -23 24 -43 53
-108 154 -276 295 -464 387 -352 174 -738 174 -1090 0 -353 -173 -588 -475
-671 -862 -25 -116 -25 -380 0 -496 83 -387 318 -689 671 -862 233 -115 476
-153 725 -115 192 29 369 99 527 207 158 107 316 289 405 468 85 168 116 303
128 565 14 299 45 481 122 705 159 462 468 858 881 1130 256 169 497 267 822
333 99 20 139 22 395 22 308 0 340 -4 579 -66 601 -155 1131 -592 1411 -1164
82 -168 146 -343 127 -350 -6 -3 -243 -4 -526 -3 l-515 3 -47 70 c-118 174
-286 318 -484 415 -233 115 -476 153 -725 115 -192 -29 -369 -99 -527 -207
-158 -107 -316 -289 -405 -468 -85 -168 -116 -303 -128 -565 -18 -393 -79
-651 -225 -950 -297 -610 -855 -1051 -1515 -1199 -184 -41 -288 -49 -548 -43
-203 4 -254 9 -357 31 -309 65 -542 161 -790 323 -524 343 -873 884 -975 1508
-28 170 -28 520 0 690 125 765 625 1402 1335 1701 168 70 432 140 595 157 81
9 462 6 540 -3z m5375 -1872 c4 -13 10 -136 12 -274 4 -200 2 -273 -11 -365
-141 -975 -914 -1748 -1884 -1883 -151 -21 -473 -21 -624 0 -433 60 -842 253
-1183 557 l-49 44 51 64 c164 207 315 494 408 777 14 45 30 82 33 81 4 0 30
-32 57 -70 62 -87 199 -219 291 -280 223 -149 435 -214 704 -214 269 0 479 64
705 214 90 60 248 215 314 311 l52 75 -398 5 -398 5 -3 475 c-1 261 0 481 3
488 3 9 204 12 959 12 l954 0 7 -22z"/>
</g>
</svg>
