<?xml version="1.0" standalone="no"?>
<!DOCTYPE svg PUBLIC "-//W3C//DTD SVG 20010904//EN"
 "http://www.w3.org/TR/2001/REC-SVG-20010904/DTD/svg10.dtd">
<svg version="1.0" xmlns="http://www.w3.org/2000/svg"
 width="1000.000000pt" height="1000.000000pt" viewBox="0 0 1000.000000 1000.000000"
 preserveAspectRatio="xMidYMid meet">

<g transform="translate(0.000000,1000.000000) scale(0.100000,-0.100000)"
fill="#7b88db" stroke="none">
<path d="M4695 9939 c-424 -26 -905 -122 -1308 -263 -437 -152 -883 -381
-1240 -636 -796 -567 -1396 -1333 -1750 -2230 -664 -1685 -354 -3602 807
-4990 577 -690 1328 -1208 2183 -1506 372 -130 758 -212 1198 -255 168 -17
672 -17 840 0 599 59 1097 188 1615 421 1446 648 2504 1972 2819 3532 69 337
95 612 95 983 0 371 -26 646 -95 983 -271 1343 -1087 2511 -2259 3236 -170
106 -511 280 -695 356 -703 289 -1452 414 -2210 369z m2481 -2995 c32 -16 67
-41 77 -55 27 -38 47 -131 47 -224 0 -287 -238 -1856 -505 -3315 -91 -501
-120 -599 -215 -725 -130 -174 -390 -144 -715 84 -55 39 -257 177 -450 306
-1069 721 -1098 741 -1144 839 -13 29 -21 66 -21 99 0 82 36 143 164 275 113
117 175 176 721 686 375 351 806 779 829 824 48 93 -55 147 -162 85 -67 -39
-462 -296 -697 -455 -1475 -994 -1513 -1018 -1665 -1068 -82 -28 -234 -37
-338 -21 -159 25 -375 83 -782 211 -165 52 -306 112 -347 148 -33 29 -63 84
-63 115 0 79 84 164 234 240 52 26 288 130 523 231 235 101 637 275 893 386
1307 569 1394 605 2149 915 658 270 995 396 1166 436 118 27 225 22 301 -17z"/>
</g>
</svg>
